<?xml version="1.0" encoding="UTF-8" standalone="no"?> <svg width="52" height="53" viewBox="0 0 52 53" fill="none" xmlns="http://www.w3.org/2000/svg">
<path d="M30.3547 26.0173C30.3547 11.781 30.387 0.107687 30.4301 0.0753811C30.4624 0.0323062 32.6162 0 35.2007 0C38.9482 0 40.1112 0.0323062 40.865 0.161531C46.4863 1.13072 50.7615 5.36283 51.8276 10.9733C51.9784 11.7595 51.9999 13.6009 51.9999 25.9527C51.9999 39.148 52.0156 40.7001 51.5996 42.1263C51.5277 42.3726 51.443 42.6152 51.343 42.9134C51.16 43.4411 50.8046 44.2918 50.5354 44.7979C48.4355 48.7501 44.5803 51.4099 40.2081 51.9053C39.1743 52.013 30.8178 52.0561 30.527 51.9484C30.3655 51.8838 30.3547 49.5039 30.3547 26.0173ZM45.5494 26.8895C44.9895 25.2527 43.6111 23.9712 41.9311 23.5297C39.239 22.8297 36.4391 24.3804 35.6314 27.0188C35.3622 27.8587 35.3514 29.2371 35.5884 30.0555C36.3745 32.7262 39.239 34.3523 41.9311 33.6523C43.5895 33.2108 44.8818 32.0154 45.5387 30.314C45.894 29.3879 45.9048 27.9018 45.5494 26.8895Z" fill="black"/>
<path d="M12.0588 10.7795C11.3803 10.9087 10.3465 11.4256 9.79731 11.9102C8.6666 12.8902 8.10662 14.2793 8.19277 15.9162C8.23585 16.7669 8.28969 16.9931 8.63429 17.6823C9.14042 18.7268 9.905 19.4914 10.9496 20.0083C11.6711 20.3637 11.8541 20.4068 12.791 20.4391C13.6418 20.4714 13.9433 20.4391 14.514 20.2452C16.8508 19.4591 18.2615 17.1869 17.8631 14.8609C17.4 12.0933 14.7725 10.2411 12.0588 10.7795Z" fill="black"/>
<path d="M11.1326 0.172284C5.95282 1.0984 1.78532 4.93207 0.471538 9.97184C-0.00228627 11.7918 -0.0345925 12.8579 0.0192512 26.9757C0.0515574 39.9412 0.0623261 40.2428 0.277701 41.2442C1.47303 46.6394 5.3067 50.4838 10.7557 51.7545C11.4664 51.9161 12.371 51.9484 18.1969 51.9807C24.2274 52.0237 24.852 52.013 25.0135 51.8514C25.175 51.6899 25.1858 49.6116 25.1858 26.0496C25.1858 8.58267 25.1535 0.355352 25.0781 0.20459C24.9704 0.0107529 24.7873 -1.58029e-05 18.4769 0.0107529C13.3509 0.0215217 11.811 0.0538279 11.1326 0.172284ZM20.8783 47.8347L16.4954 47.7809C12.4571 47.7378 12.0264 47.7163 11.2187 47.5116C7.7512 46.6178 5.17748 43.9472 4.45597 40.4689C4.21906 39.3813 4.21906 12.5886 4.4452 11.5225C5.09133 8.49652 7.19123 5.9874 10.0234 4.85668C11.4449 4.28594 12.1018 4.22133 16.7108 4.21056L20.8783 4.19979V47.8347Z" fill="black"/>
</svg>
