<?xml version="1.0" encoding="UTF-8" standalone="no"?> <svg width="52" height="52" viewBox="0 0 52 52" fill="none" xmlns="http://www.w3.org/2000/svg">
<path d="M23.4072 51.8931C19.4017 51.5097 15.3464 50.072 11.8627 47.8003C8.94349 45.8967 8.28427 45.1142 8.28427 43.5526C8.28427 40.4157 11.7352 34.9215 17.6396 28.6582C20.9928 25.1011 25.6637 20.9316 26.1688 21.0445C27.1507 21.264 35.0015 28.9178 37.9406 32.5207C42.5881 38.2182 44.7247 42.8831 43.6393 44.9629C42.8141 46.5439 37.6942 49.6339 33.9327 50.821C30.8326 51.7994 26.7611 52.2141 23.4072 51.8931V51.8931ZM4.34152 40.2911C1.91572 36.5716 0.690118 32.9099 0.0983911 27.6137C-0.0969984 25.8649 -0.0269809 24.8646 0.54207 21.2751C1.25131 16.8013 3.80045 11.6257 6.86348 8.44058C8.16804 7.08399 8.28455 7.05094 9.87474 7.58634C11.8058 8.23652 13.8681 9.66 17.0663 12.5504L18.9323 14.2368L17.9134 15.4879C13.1832 21.2958 8.1898 29.5283 6.30795 34.6215C5.2849 37.3904 4.87227 40.1698 5.31245 41.3269C5.60965 42.1082 5.33667 41.817 4.34152 40.2911ZM46.922 40.9237C47.1616 39.7545 46.8585 37.6072 46.1481 35.4414C44.6097 30.751 39.4675 22.0253 34.7456 16.0927L33.2591 14.2252L34.8673 12.7493C36.9671 10.8223 38.4249 9.66849 39.998 8.68862C41.2393 7.91538 43.0131 7.23087 43.7756 7.23087C44.2456 7.23087 45.9006 8.9474 47.2366 10.8207C49.3058 13.722 50.828 17.2391 51.5992 20.9004C52.0975 23.2661 52.139 28.3299 51.6795 30.6898C51.3024 32.6264 50.506 35.1385 49.7292 36.8423C49.1471 38.1189 47.6994 40.5982 47.065 41.4049C46.7388 41.8197 46.7385 41.8188 46.922 40.9237H46.922ZM23.8361 6.34517C21.6574 5.2394 18.2964 4.05243 16.4397 3.73309C15.7888 3.62114 14.6785 3.5587 13.9723 3.59434C12.4405 3.67165 12.5089 3.59159 14.9663 2.43121C17.0094 1.46649 18.7136 0.899193 21.027 0.413696C23.6295 -0.132454 28.5213 -0.138863 31.0823 0.40052C33.8485 0.9831 37.1057 2.19457 38.9411 3.32345L39.4866 3.65897L38.235 3.5958C35.7479 3.47027 32.1233 4.47451 28.2318 6.3673C27.058 6.93822 26.0368 7.39419 25.9625 7.38058C25.8882 7.36697 24.9313 6.90103 23.8361 6.34517V6.34517Z" fill="black"/>
</svg>
